<?xml version="1.0" encoding="UTF-8" standalone="no"?>
<!-- Created with Inkscape (http://www.inkscape.org/) -->

<svg
   xmlns:dc="http://purl.org/dc/elements/1.1/"
   xmlns:cc="http://creativecommons.org/ns#"
   xmlns:rdf="http://www.w3.org/1999/02/22-rdf-syntax-ns#"
   xmlns:svg="http://www.w3.org/2000/svg"
   xmlns="http://www.w3.org/2000/svg"
   xmlns:sodipodi="http://sodipodi.sourceforge.net/DTD/sodipodi-0.dtd"
   xmlns:inkscape="http://www.inkscape.org/namespaces/inkscape"
   width="58.200001"
   height="62.599998"
   id="svg2995"
   version="1.1"
   inkscape:version="0.48.4 r9939"
   sodipodi:docname="drawing.svg">
  <sodipodi:namedview
     id="base"
     pagecolor="#ffffff"
     bordercolor="#666666"
     borderopacity="1.0"
     inkscape:pageopacity="0.0"
     inkscape:pageshadow="2"
     inkscape:zoom="5.6"
     inkscape:cx="50.13501"
     inkscape:cy="29.575736"
     inkscape:document-units="px"
     inkscape:current-layer="layer1"
     showgrid="false"
     inkscape:window-width="1920"
     inkscape:window-height="1056"
     inkscape:window-x="0"
     inkscape:window-y="24"
     inkscape:window-maximized="1"
     fit-margin-top="0"
     fit-margin-left="0"
     fit-margin-right="0"
     fit-margin-bottom="0" />
  <defs
     id="defs2997" />
  <metadata
     id="metadata3000">
    <rdf:RDF>
      <cc:Work
         rdf:about="">
        <dc:format>image/svg+xml</dc:format>
        <dc:type
           rdf:resource="http://purl.org/dc/dcmitype/StillImage" />
        <dc:title />
      </cc:Work>
    </rdf:RDF>
  </metadata>
  <g
     transform="translate(-345.9,-501.06218)"
     id="layer1"
     inkscape:groupmode="layer"
     inkscape:label="Layer 1">
    <g
       id="Artwork_EUNL2016"
       transform="translate(343.3,489.46218)">
      <g
         id="g3172">
        <g
           id="g3174">
          <path
             style="fill:#858585"
             id="path3176"
             d="m 53.2,14.8 v 20.7 c 0,3.2 -0.6,5.2 -1.8,6.5 -1,1 -2.5,1.5 -4.6,1.5 -2.2,0 -3.9,-0.5 -5,-1.6 -1.3,-1.3 -1.9,-3.3 -1.9,-6.4 V 14.8 H 32.5 V 36 c 0,4.3 1.3,7.8 3.7,10.2 2.4,2.4 6,3.7 10.5,3.7 4.7,0 8.3,-1.4 10.7,-4.2 2.1,-2.4 3.2,-5.7 3.2,-9.7 V 14.8 h -7.4 z"
             inkscape:connector-curvature="0" />
        </g>
        <g
           id="g3178">
          <path
             style="fill:#5c5c5c"
             id="path3180"
             d="m 22.5,11.6 v 1.6 c 0,1 -0.5,1.6 -1.4,1.6 H 3.4 v 6.8 h 18.3 c 1.8,0 3.1,-0.5 4.1,-1.4 1,-1 1.5,-2.5 1.5,-4.5 v -4 h -4.8 z"
             inkscape:connector-curvature="0" />
          <path
             style="fill:#5c5c5c"
             id="path3182"
             d="m 12.1,42.6 c -1.5,0 -2.7,-0.4 -3.5,-1.2 -0.8,-0.8 -1.3,-2.1 -1.3,-3.6 0,-1.1 0.3,-2 1,-2.7 C 9,34.4 10.2,34 11.6,34 H 27.2 V 27.2 H 10.9 c -3.1,0 -5.2,1.6 -6.2,3 -1.1,1.6 -1.9,3.6 -1.9,5.6 0,2.2 0.8,5.8 3.1,7.2 l -2.5,0 v 6.4 h 23.9 v -6.8 l -15.2,0 0,0 z"
             inkscape:connector-curvature="0" />
        </g>
        <g
           id="g3184">
          <path
             style="fill:#3a3a3a"
             id="path3186"
             d="m 11.3,68.5 c 2.4,-3 4,-5 4,-7.6 0,-3.1 -2.3,-5 -6,-5 -3.7,0 -5.9,2 -5.9,5.6 V 62 h 3.9 v -0.3 c 0,-1.5 0.7,-2.4 1.9,-2.4 1.3,0 2,0.7 2,1.9 0,1 -0.8,2.3 -2.2,4.1 L 2.6,73.7 H 15.2 V 70.4 H 9.8 l 1.5,-1.9 z"
             inkscape:connector-curvature="0" />
          <path
             style="fill:#3a3a3a"
             id="path3188"
             d="m 25.8,55.9 c -4.1,0 -6.6,3.4 -6.6,9.1 0,5.7 2.5,9.1 6.6,9.1 4.1,0 6.6,-3.4 6.6,-9.1 0,-5.8 -2.4,-9.1 -6.6,-9.1 z m 0,3.7 c 2.1,0 2.5,3 2.5,5.5 0,2.5 -0.4,5.5 -2.5,5.5 -1.6,0 -2.5,-1.9 -2.5,-5.5 0,-3.6 0.9,-5.5 2.5,-5.5 z"
             inkscape:connector-curvature="0" />
          <polygon
             style="fill:#3a3a3a"
             id="polygon3190"
             points="39.6,73.7 43.5,73.7 43.5,56.3 37.7,56.3 36,59.6 39.6,59.6 " />
          <path
             style="fill:#3a3a3a"
             id="path3192"
             d="m 55.6,62.5 c -0.5,0 -1,0 -1.5,0.2 l 4.7,-6.4 h -4.7 l -2.8,4.3 c -2,3 -2.9,5.4 -2.9,7.5 0,3.7 2.4,6.1 6,6.1 3.8,0 6.4,-2.5 6.4,-6.1 0,-3.3 -2.2,-5.6 -5.2,-5.6 z m 1.3,5.7 c 0,1.5 -0.9,2.5 -2.3,2.5 -1.5,0 -2.4,-0.9 -2.4,-2.5 0,-1.5 0.9,-2.5 2.3,-2.5 1.6,0 2.4,0.9 2.4,2.5 z"
             inkscape:connector-curvature="0" />
        </g>
      </g>
    </g>
  </g>
</svg>
